HIERARCHY
ROOT Hips
{
	OFFSET 0.000000 121.760803 0.000000
	CHANNELS 6 Xposition Yposition Zposition Xrotation Yrotation Zrotation 
	JOINT Spine
	{
		OFFSET 0.072000 7.257294 -0.789700
		CHANNELS 3 Xrotation Yrotation Zrotation
		JOINT Spine1
		{
			OFFSET 0.000000 12.508769 -0.658067
			CHANNELS 3 Xrotation Yrotation Zrotation
			JOINT Spine1_split
			{
				OFFSET 0.000000 12.508769 -0.658067
				CHANNELS 3 Xrotation Yrotation Zrotation
				JOINT Spine2
				{
					OFFSET 0.000000 12.508769 -0.658067
					CHANNELS 3 Xrotation Yrotation Zrotation
					JOINT Neck
					{
						OFFSET 0.000000 14.033295 7.520400
						CHANNELS 3 Xrotation Yrotation Zrotation
						JOINT Head
						{
							OFFSET 0.000000 8.198502 5.703100
							CHANNELS 3 Xrotation Yrotation Zrotation
							JOINT HeadTop_End
							{
								OFFSET 0.000000 17.760803 13.332701
								CHANNELS 3 Xrotation Yrotation Zrotation
								End Site
								{
									OFFSET 0.000000 0.000000 0.000000
								}
							}
						}
					}
					JOINT LeftShoulder
					{
						OFFSET 6.292450 5.785301 -0.669000
						CHANNELS 3 Xrotation Yrotation Zrotation
						JOINT LeftShoulder_split
						{
							OFFSET 6.292450 5.785301 -0.669000
							CHANNELS 3 Xrotation Yrotation Zrotation
							JOINT LeftArm
							{
								OFFSET 13.907140 -6.093903 1.965100
								CHANNELS 3 Xrotation Yrotation Zrotation
								JOINT LeftForeArm
								{
									OFFSET 34.140198 0.000000 0.000000
									CHANNELS 3 Xrotation Yrotation Zrotation
									JOINT LeftHand
									{
										OFFSET 40.960209 0.000000 0.000000
										CHANNELS 3 Xrotation Yrotation Zrotation
										JOINT LeftHandThumb1
										{
											OFFSET 10.006996 -7.170425 9.573125
											CHANNELS 3 Xrotation Yrotation Zrotation
											JOINT LeftHandThumb2
											{
												OFFSET 1.835007 -1.059448 1.059443
												CHANNELS 3 Xrotation Yrotation Zrotation
												JOINT LeftHandThumb3
												{
													OFFSET 2.112267 -1.219513 1.219518
													CHANNELS 3 Xrotation Yrotation Zrotation
													JOINT LeftHandThumb4
													{
														OFFSET 4.843811 -2.796570 2.796576
														CHANNELS 3 Xrotation Yrotation Zrotation
														End Site
														{
															OFFSET 0.000000 0.000000 0.000000
														}
													}
												}
											}
										}
										JOINT LeftHandIndex1
										{
											OFFSET 18.389847 -0.922348 4.596882
											CHANNELS 3 Xrotation Yrotation Zrotation
											JOINT LeftHandIndex2
											{
												OFFSET 4.711273 0.000000 0.000000
												CHANNELS 3 Xrotation Yrotation Zrotation
												JOINT LeftHandIndex3
												{
													OFFSET 2.886131 0.000000 0.000000
													CHANNELS 3 Xrotation Yrotation Zrotation
													JOINT LeftHandIndex4
													{
														OFFSET 6.145912 0.000000 0.000000
														CHANNELS 3 Xrotation Yrotation Zrotation
														End Site
														{
															OFFSET 0.000000 0.000000 0.000000
														}
													}
												}
											}
										}
										JOINT LeftHandMiddle1
										{
											OFFSET 18.013008 0.000000 0.000000
											CHANNELS 3 Xrotation Yrotation Zrotation
											JOINT LeftHandMiddle2
											{
												OFFSET 4.946693 0.000000 0.000000
												CHANNELS 3 Xrotation Yrotation Zrotation
												JOINT LeftHandMiddle3
												{
													OFFSET 3.342232 0.000000 0.000000
													CHANNELS 3 Xrotation Yrotation Zrotation
													JOINT LeftHandMiddle4
													{
														OFFSET 4.461754 0.000000 0.000000
														CHANNELS 3 Xrotation Yrotation Zrotation
														End Site
														{
															OFFSET 0.000000 0.000000 0.000000
														}
													}
												}
											}
										}
										JOINT LeftHandRing1
										{
											OFFSET 15.849892 -0.102921 -4.126150
											CHANNELS 3 Xrotation Yrotation Zrotation
											JOINT LeftHandRing2
											{
												OFFSET 3.527054 0.000000 0.000000
												CHANNELS 3 Xrotation Yrotation Zrotation
												JOINT LeftHandRing3
												{
													OFFSET 2.961098 0.000000 0.000000
													CHANNELS 3 Xrotation Yrotation Zrotation
													JOINT LeftHandRing4
													{
														OFFSET 4.927200 0.000000 0.000000
														CHANNELS 3 Xrotation Yrotation Zrotation
														End Site
														{
															OFFSET 0.000000 0.000000 0.000000
														}
													}
												}
											}
										}
										JOINT LeftHandPinky1
										{
											OFFSET 12.791824 -0.832031 -6.799156
											CHANNELS 3 Xrotation Yrotation Zrotation
											JOINT LeftHandPinky2
											{
												OFFSET 3.327133 0.000000 0.000000
												CHANNELS 3 Xrotation Yrotation Zrotation
												JOINT LeftHandPinky3
												{
													OFFSET 3.014900 0.000000 0.000000
													CHANNELS 3 Xrotation Yrotation Zrotation
													JOINT LeftHandPinky4
													{
														OFFSET 5.847786 0.000000 0.000000
														CHANNELS 3 Xrotation Yrotation Zrotation
														End Site
														{
															OFFSET 0.000000 0.000000 0.000000
														}
													}
												}
											}
										}
									}
								}
							}
						}
					}
					JOINT RightShoulder
					{
						OFFSET -6.292450 5.785301 -0.669000
						CHANNELS 3 Xrotation Yrotation Zrotation
						JOINT RightShoulder_split
						{
							OFFSET -6.292450 5.785301 -0.669000
							CHANNELS 3 Xrotation Yrotation Zrotation
							JOINT RightArm
							{
								OFFSET -13.907140 -6.093903 1.965100
								CHANNELS 3 Xrotation Yrotation Zrotation
								JOINT RightForeArm
								{
									OFFSET -34.140198 0.000000 0.000000
									CHANNELS 3 Xrotation Yrotation Zrotation
									JOINT RightHand
									{
										OFFSET -40.960209 0.000000 0.000000
										CHANNELS 3 Xrotation Yrotation Zrotation
										JOINT RightHandThumb1
										{
											OFFSET -10.007050 -7.170456 9.573117
											CHANNELS 3 Xrotation Yrotation Zrotation
											JOINT RightHandThumb2
											{
												OFFSET -1.835007 -1.059448 1.059443
												CHANNELS 3 Xrotation Yrotation Zrotation
												JOINT RightHandThumb3
												{
													OFFSET -2.112267 -1.219513 1.219518
													CHANNELS 3 Xrotation Yrotation Zrotation
													JOINT RightHandThumb4
													{
														OFFSET -4.843834 -2.796585 2.796590
														CHANNELS 3 Xrotation Yrotation Zrotation
														End Site
														{
															OFFSET 0.000000 0.000000 0.000000
														}
													}
												}
											}
										}
										JOINT RightHandIndex1
										{
											OFFSET -18.389870 -0.922424 4.596786
											CHANNELS 3 Xrotation Yrotation Zrotation
											JOINT RightHandIndex2
											{
												OFFSET -4.711273 0.000000 0.000000
												CHANNELS 3 Xrotation Yrotation Zrotation
												JOINT RightHandIndex3
												{
													OFFSET -2.886131 0.000000 0.000000
													CHANNELS 3 Xrotation Yrotation Zrotation
													JOINT RightHandIndex4
													{
														OFFSET -6.145920 0.000000 0.000000
														CHANNELS 3 Xrotation Yrotation Zrotation
														End Site
														{
															OFFSET 0.000000 0.000000 0.000000
														}
													}
												}
											}
										}
										JOINT RightHandMiddle1
										{
											OFFSET -18.013008 0.000000 0.000000
											CHANNELS 3 Xrotation Yrotation Zrotation
											JOINT RightHandMiddle2
											{
												OFFSET -4.946693 0.000000 0.000000
												CHANNELS 3 Xrotation Yrotation Zrotation
												JOINT RightHandMiddle3
												{
													OFFSET -3.342232 0.000000 0.000000
													CHANNELS 3 Xrotation Yrotation Zrotation
													JOINT RightHandMiddle4
													{
														OFFSET -4.461754 0.000000 0.000000
														CHANNELS 3 Xrotation Yrotation Zrotation
														End Site
														{
															OFFSET 0.000000 0.000000 0.000000
														}
													}
												}
											}
										}
										JOINT RightHandRing1
										{
											OFFSET -15.849876 -0.102936 -4.126237
											CHANNELS 3 Xrotation Yrotation Zrotation
											JOINT RightHandRing2
											{
												OFFSET -3.527054 0.000000 0.000000
												CHANNELS 3 Xrotation Yrotation Zrotation
												JOINT RightHandRing3
												{
													OFFSET -2.961098 0.000000 0.000000
													CHANNELS 3 Xrotation Yrotation Zrotation
													JOINT RightHandRing4
													{
														OFFSET -4.927200 0.000000 0.000000
														CHANNELS 3 Xrotation Yrotation Zrotation
														End Site
														{
															OFFSET 0.000000 0.000000 0.000000
														}
													}
												}
											}
										}
										JOINT RightHandPinky1
										{
											OFFSET -12.791786 -0.832077 -6.799222
											CHANNELS 3 Xrotation Yrotation Zrotation
											JOINT RightHandPinky2
											{
												OFFSET -3.327133 0.000000 0.000000
												CHANNELS 3 Xrotation Yrotation Zrotation
												JOINT RightHandPinky3
												{
													OFFSET -3.014900 0.000000 0.000000
													CHANNELS 3 Xrotation Yrotation Zrotation
													JOINT RightHandPinky4
													{
														OFFSET -5.847786 0.000000 0.000000
														CHANNELS 3 Xrotation Yrotation Zrotation
														End Site
														{
															OFFSET 0.000000 0.000000 0.000000
														}
													}
												}
											}
										}
									}
								}
							}
						}
					}
				}
			}
		}
	}
	JOINT LeftUpLeg
	{
		OFFSET 13.026900 -6.336304 -1.092800
		CHANNELS 3 Xrotation Yrotation Zrotation
		JOINT LeftLeg
		{
			OFFSET 0.524474 -46.096886 9.782700
			CHANNELS 3 Xrotation Yrotation Zrotation
			JOINT LeftFoot
			{
				OFFSET -0.524474 -53.427422 -12.948200
				CHANNELS 3 Xrotation Yrotation Zrotation
				JOINT LeftToeBase
				{
					OFFSET 0.192200 -14.009700 16.364100
					CHANNELS 3 Xrotation Yrotation Zrotation
					JOINT LeftToe_End
					{
						OFFSET -1.784700 -0.561700 9.474800
						CHANNELS 3 Xrotation Yrotation Zrotation
						End Site
						{
							OFFSET 0.000000 0.000000 0.000000
						}
					}
				}
			}
		}
	}
	JOINT RightUpLeg
	{
		OFFSET -12.883000 -6.336304 -1.092800
		CHANNELS 3 Xrotation Yrotation Zrotation
		JOINT RightLeg
		{
			OFFSET -0.524587 -46.096825 9.782800
			CHANNELS 3 Xrotation Yrotation Zrotation
			JOINT RightFoot
			{
				OFFSET 0.524587 -53.427383 -12.948300
				CHANNELS 3 Xrotation Yrotation Zrotation
				JOINT RightToeBase
				{
					OFFSET -0.192200 -14.009700 16.364100
					CHANNELS 3 Xrotation Yrotation Zrotation
					JOINT RightToe_End
					{
						OFFSET 1.784700 -0.561700 9.474800
						CHANNELS 3 Xrotation Yrotation Zrotation
						End Site
						{
							OFFSET 0.000000 0.000000 0.000000
						}
					}
				}
			}
		}
	}
}
MOTION
Frames: 4
Frame Time: 0.016667
-4.017166 103.621399 -0.501888 51.570725 -70.899850 52.817586 7.801439 3.322698 4.225330 12.707904 6.406384 6.655391 0.000000 0.000000 0.000000 12.728351 6.436538 6.586121 3.385419 -0.460127 2.258546 8.874426 1.648274 -4.487663 0.000000 0.000000 0.000002 0.608283 -2.105591 -11.581397 0.000000 0.000000 0.000000 -46.459169 -29.078823 -92.550730 0.000002 -20.859008 -0.000002 -20.416224 18.957795 30.637937 55.682673 -2.117581 45.305567 81.950345 -1.423308 50.782450 -10.247784 17.984633 1.554702 -0.000000 -0.000001 -0.000001 0.230318 3.926594 -22.478593 5.723165 5.849677 -88.745317 5.723160 5.849664 -88.745290 -0.000000 0.000000 -0.000001 6.341379 9.458913 -58.484294 6.990972 5.739319 -101.253327 6.566592 5.807287 -97.036279 -0.000001 -0.000001 -0.000002 7.415888 8.807735 -74.918023 5.953052 5.850166 -91.000427 6.157393 5.843062 -93.006228 0.000001 0.000000 0.000003 20.711413 9.388349 -85.840711 5.062045 5.797811 -82.236632 4.939069 5.779800 -81.017464 0.000000 -0.000001 -0.000003 -0.784368 15.466919 22.252688 0.000000 0.000000 0.000000 -56.162873 25.008318 77.070946 0.000010 0.015611 -0.000010 -12.877756 -7.607197 2.872488 -0.787132 13.150271 -22.268109 11.690788 -49.505624 19.340362 2.734739 -6.739222 -25.279053 -0.000001 -0.000003 0.000001 -2.857591 -16.672246 -11.849139 4.400799 -4.650123 86.840999 4.400798 -4.650139 86.841122 0.000001 -0.000000 -0.000003 6.189300 -11.029365 41.067127 5.549098 -4.571160 101.053216 5.225954 -4.622397 97.022660 -0.000000 -0.000000 0.000001 -0.865228 -4.640761 62.576329 4.860681 -4.652747 92.507522 5.023311 -4.642792 94.514047 0.000001 -0.000001 -0.000004 -13.667250 -1.460352 72.993159 3.233215 -4.434601 72.178147 3.235058 -4.435196 72.201766 0.000000 0.000001 -0.000001 -52.875868 2.427360 -3.089851 43.919114 -9.137838 1.738476 -7.589062 -0.802779 -0.070415 -0.379278 1.642673 -1.202616 0.000000 0.000000 0.000000 -45.704955 -3.706379 -19.058092 44.853781 -4.828062 -2.084380 -12.015084 -2.562501 14.894944 -1.799731 -0.000019 0.000001 0.000000 0.000000 0.000000 
-4.023539 103.645775 -0.434304 51.494681 -70.884632 52.722189 7.802234 3.319544 4.217242 12.722934 6.393028 6.642684 0.000000 0.000000 0.000000 12.744211 6.422134 6.572930 3.354593 -0.453954 2.186402 8.724217 1.871162 -4.553499 -0.000001 0.000003 -0.000000 0.608190 -2.112948 -11.540779 0.000000 0.000000 0.000000 -46.406371 -29.046291 -92.578139 0.000000 -20.879919 -0.000001 -20.407348 18.976303 30.509372 55.367521 -2.060145 45.240929 83.883288 -1.387126 51.818490 -10.307665 17.537428 1.597567 -0.000001 0.000001 0.000000 0.241770 3.953148 -22.443459 5.716009 5.849503 -88.675130 5.716023 5.849507 -88.675096 0.000000 -0.000001 0.000001 6.324672 9.455585 -58.401669 6.990990 5.739317 -101.253333 6.566585 5.807297 -97.036279 0.000001 0.000001 0.000001 7.408065 8.809528 -74.848464 5.949545 5.850235 -90.966017 6.153892 5.843252 -92.971838 0.000000 -0.000000 -0.000001 20.660077 9.415023 -85.725301 5.052636 5.796520 -82.143379 4.930505 5.778434 -80.932250 0.000001 0.000002 0.000002 -0.774899 15.458373 22.231170 0.000000 0.000000 0.000000 -54.597319 24.896574 76.442903 0.000007 2.873077 0.000003 -12.870062 -9.290313 2.437195 -0.798232 13.174563 -22.271966 11.757464 -49.535889 19.412171 2.724990 -6.695504 -25.326410 0.000002 0.000001 -0.000001 -2.848290 -16.689895 -11.803243 4.402678 -4.650226 86.864133 4.402686 -4.650246 86.864235 -0.000002 -0.000001 -0.000002 6.207318 -11.051167 41.060912 5.549100 -4.571138 101.053250 5.225972 -4.622385 97.022639 -0.000001 0.000001 -0.000000 -0.875336 -4.637306 62.599394 4.858822 -4.652827 92.484299 5.021439 -4.642941 94.490845 0.000000 -0.000000 -0.000002 -13.666201 -1.439288 72.929700 3.229977 -4.433560 72.135957 3.231782 -4.434135 72.159589 -0.000000 0.000001 0.000000 -52.836868 2.414528 -3.121404 43.885618 -9.110531 1.735254 -7.582137 -0.807261 -0.030671 -0.314254 1.660618 -1.234948 -0.000000 -0.000000 0.000000 -45.637603 -3.724775 -19.096541 44.778474 -4.792026 -2.057241 -11.988105 -2.602563 14.912477 -1.807294 -0.000022 -0.000002 -0.000000 -0.000000 -0.000000 
-4.024765 103.667969 -0.365025 51.432055 -70.863670 52.644537 7.803329 3.311167 4.211388 12.734712 6.382441 6.620571 0.000000 0.000000 0.000000 12.753684 6.413131 6.553441 3.323823 -0.449309 2.118599 8.568383 2.100351 -4.603539 -0.000000 0.000000 -0.000001 0.607731 -2.121757 -11.501781 0.000000 0.000000 0.000000 -46.348766 -29.026190 -92.588713 0.000002 -20.910923 0.000011 -20.414887 18.980121 30.448188 55.053408 -2.001843 45.179823 85.655326 -1.068781 52.951629 -10.366747 17.090018 1.640439 0.000000 0.000001 -0.000000 0.253185 3.979750 -22.408317 5.708863 5.849344 -88.604936 5.708861 5.849348 -88.604909 -0.000000 -0.000000 -0.000001 6.307999 9.452195 -58.319099 6.990968 5.739331 -101.253333 6.566584 5.807302 -97.036279 -0.000000 -0.000000 -0.000004 7.400221 8.811298 -74.778933 5.946047 5.850289 -90.931640 6.150392 5.843423 -92.937489 0.000000 0.000000 0.000003 20.608673 9.441498 -85.609871 5.043227 5.795214 -82.050134 4.921917 5.777072 -80.847050 0.000002 0.000001 -0.000005 -0.771699 15.442477 22.219736 0.000000 0.000000 0.000000 -54.175541 25.033927 76.267736 0.000003 3.450926 0.000001 -13.186373 -9.532927 2.438387 -0.811482 13.198129 -22.276935 11.835155 -49.570173 19.494968 2.713440 -6.643960 -25.382924 -0.000002 -0.000001 -0.000002 -2.834074 -16.711508 -11.736776 4.407209 -4.650477 86.920045 4.407215 -4.650482 86.920181 -0.000001 0.000002 0.000002 6.223069 -11.065518 41.078933 5.549100 -4.571136 101.053216 5.225943 -4.622394 97.022646 -0.000000 -0.000001 -0.000001 -0.885591 -4.633928 62.624645 4.855905 -4.652943 92.448578 5.018511 -4.643178 94.455103 0.000001 -0.000001 -0.000001 -13.660875 -1.426059 72.885317 3.226689 -4.432526 72.093753 3.228510 -4.433091 72.117399 -0.000000 0.000000 0.000001 -52.811952 2.376722 -3.149115 43.842154 -9.007280 1.717023 -7.548886 -0.807242 -0.022420 -0.366036 1.568056 -1.147998 0.000000 -0.000000 0.000000 -45.584768 -3.739281 -19.140990 44.706566 -4.769758 -2.034137 -11.957959 -2.627204 14.937214 -1.783699 -0.000025 -0.000006 -0.000000 0.000001 0.000000 
-4.022934 103.687790 -0.294512 51.375218 -70.839799 52.573738 7.804175 3.308157 4.201504 12.748112 6.372654 6.603423 0.000000 0.000000 0.000000 12.767399 6.402618 6.536451 3.292770 -0.439168 2.047276 8.416541 2.324650 -4.644372 0.000001 0.000001 0.000000 0.605215 -2.134135 -11.471699 0.000000 0.000000 0.000000 -46.290408 -29.015327 -92.588535 -0.000004 -20.949865 -0.000002 -20.434130 18.977776 30.419255 54.740377 -1.942688 45.122221 87.181040 -0.340592 54.208397 -10.425095 16.642388 1.683344 -0.000002 -0.000002 0.000001 0.264604 4.006384 -22.373266 5.701719 5.849150 -88.534729 5.701709 5.849166 -88.534674 -0.000000 0.000000 -0.000001 6.291377 9.448802 -58.236529 6.990979 5.739315 -101.253333 6.566583 5.807297 -97.036265 -0.000001 0.000001 0.000006 7.392375 8.813050 -74.709401 5.942540 5.850374 -90.897230 6.146891 5.843592 -92.903140 -0.000001 0.000000 0.000003 20.557128 9.467804 -85.494407 5.033807 5.793912 -81.956915 4.913342 5.775689 -80.761864 -0.000000 -0.000002 -0.000003 -0.765683 15.424785 22.200340 0.000000 0.000000 0.000000 -53.294737 25.069712 75.930810 -0.000008 4.975365 0.000000 -13.266096 -10.397357 2.181852 -0.824687 13.208699 -22.283776 11.930276 -49.611697 19.594114 2.699775 -6.586555 -25.450489 0.000000 0.000002 -0.000002 -2.809463 -16.735792 -11.630351 4.407968 -4.650496 86.929389 4.407982 -4.650522 86.929539 0.000000 -0.000001 0.000001 6.238564 -11.074705 41.121181 5.549104 -4.571151 101.053216 5.225955 -4.622382 97.022646 -0.000001 -0.000001 -0.000000 -0.896615 -4.631396 62.666146 4.854697 -4.653005 92.433394 5.017310 -4.643254 94.439953 -0.000000 0.000001 0.000000 -13.676183 -1.418076 72.876588 3.223446 -4.431469 72.051495 3.225291 -4.432044 72.075271 -0.000000 0.000000 0.000001 -52.792065 2.385163 -3.194913 43.820875 -9.026727 1.720153 -7.553245 -0.813782 0.024139 -0.297192 1.680632 -1.255449 -0.000000 -0.000000 0.000000 -45.535553 -3.740985 -19.185853 44.638384 -4.739837 -2.004729 -11.926390 -2.667908 14.959682 -1.794749 -0.000036 0.000002 0.000000 -0.000000 -0.000000 
